<?xml version="1.0" encoding="utf-8"?>
<!-- Generator: Adobe Illustrator 16.0.0, SVG Export Plug-In . SVG Version: 6.00 Build 0)  -->
<!DOCTYPE svg PUBLIC "-//W3C//DTD SVG 1.1//EN" "http://www.w3.org/Graphics/SVG/1.1/DTD/svg11.dtd">
<svg version="1.1" id="github" xmlns="http://www.w3.org/2000/svg" xmlns:xlink="http://www.w3.org/1999/xlink" x="0px" y="0px"
	 width="560px" height="560px" viewBox="0 0 560 560" enable-background="new 0 0 560 560" xml:space="preserve">
<circle fill="#57102C" cx="280" cy="280" r="268.8"/>
<path fill="#F7F7F7" d="M280,142.8c-75.773,0-137.2,61.427-137.2,137.2S204.227,417.2,280,417.2S417.2,355.773,417.2,280
	S355.773,142.8,280,142.8z M361.478,361.477c-10.59,10.59-22.915,18.9-36.633,24.705c-3.486,1.473-7.025,2.77-10.612,3.884v-20.563
	c0-10.809-3.707-18.758-11.121-23.848c4.646-0.447,8.909-1.072,12.796-1.876s7.994-1.966,12.325-3.485
	c4.332-1.521,8.219-3.33,11.657-5.427c3.438-2.101,6.745-4.825,9.914-8.173c3.17-3.35,5.83-7.146,7.972-11.389
	c2.143-4.242,3.842-9.335,5.091-15.273c1.249-5.939,1.876-12.482,1.876-19.628c0-13.846-4.511-25.634-13.532-35.373
	c4.107-10.718,3.662-22.375-1.339-34.969l-3.352-0.4c-2.321-0.269-6.499,0.714-12.527,2.948s-12.796,5.894-20.297,10.987
	c-10.632-2.948-21.661-4.421-33.096-4.421c-11.522,0-22.51,1.473-32.962,4.421c-4.732-3.217-9.223-5.872-13.465-7.972
	c-4.242-2.1-7.636-3.528-10.184-4.29c-2.545-0.759-4.911-1.229-7.101-1.408c-2.19-0.179-3.595-0.221-4.22-0.134
	c-0.625,0.086-1.072,0.179-1.338,0.269c-5.004,12.684-5.449,24.343-1.338,34.969c-9.021,9.736-13.533,21.526-13.533,35.373
	c0,7.146,0.625,13.688,1.876,19.628c1.252,5.938,2.949,11.031,5.091,15.273c2.142,4.242,4.802,8.039,7.972,11.389
	c3.169,3.348,6.476,6.072,9.915,8.173c3.438,2.103,7.325,3.909,11.656,5.427c4.332,1.52,8.439,2.68,12.326,3.485
	c3.887,0.804,8.151,1.431,12.796,1.876c-7.325,5.004-10.987,12.953-10.987,23.848v20.964c-4.046-1.204-8.033-2.626-11.951-4.284
	c-13.717-5.805-26.043-14.115-36.632-24.705c-10.59-10.589-18.9-22.914-24.705-36.632c-6-14.19-9.044-29.276-9.044-44.845
	c0-15.568,3.044-30.654,9.047-44.845c5.805-13.717,14.115-26.043,24.705-36.632c10.589-10.59,22.915-18.9,36.632-24.705
	c14.19-6.003,29.277-9.047,44.845-9.047c15.568,0,30.654,3.044,44.845,9.047c13.72,5.805,26.043,14.115,36.633,24.705
	c10.589,10.589,18.899,22.915,24.704,36.632c6,14.193,9.044,29.279,9.044,44.845s-3.044,30.654-9.047,44.845
	C380.374,338.563,372.064,350.888,361.478,361.477L361.478,361.477z"/>
</svg>
