<?xml version="1.0" encoding="utf-8"?>
<!-- Generator: Adobe Illustrator 16.0.0, SVG Export Plug-In . SVG Version: 6.00 Build 0)  -->
<!DOCTYPE svg PUBLIC "-//W3C//DTD SVG 1.1//EN" "http://www.w3.org/Graphics/SVG/1.1/DTD/svg11.dtd">
<svg version="1.1" id="linkedin" xmlns="http://www.w3.org/2000/svg" xmlns:xlink="http://www.w3.org/1999/xlink" x="0px" y="0px"
	 width="560px" height="560px" viewBox="0 0 560 560" enable-background="new 0 0 560 560" xml:space="preserve">
<circle fill="#57102C" cx="280" cy="280" r="268.8"/>
<path fill="#F7F7F7" d="M371.109,142.8H188.891c-25.348,0-46.091,20.743-46.091,46.091v182.219
	c0,25.349,20.743,46.091,46.091,46.091h182.219c25.349,0,46.091-20.742,46.091-46.091V188.891
	C417.2,163.542,396.458,142.8,371.109,142.8z M245.7,365.75h-34.3V245.7h34.3V365.75z M228.55,228.55
	c-9.472,0-17.15-7.677-17.15-17.15c0-9.472,7.678-17.15,17.15-17.15c9.473,0,17.15,7.678,17.15,17.15
	C245.7,220.873,238.022,228.55,228.55,228.55z M365.75,365.75h-34.3v-68.6c0-9.473-7.678-17.15-17.15-17.15
	c-9.472,0-17.149,7.678-17.149,17.15v68.6h-34.3V245.7h34.3v21.296c7.072-9.716,17.889-21.296,30.013-21.296
	c21.313,0,38.59,19.197,38.59,42.874L365.75,365.75L365.75,365.75z"/>
</svg>
