<?xml version="1.0" encoding="utf-8"?>
<!-- Generator: Adobe Illustrator 16.0.0, SVG Export Plug-In . SVG Version: 6.00 Build 0)  -->
<!DOCTYPE svg PUBLIC "-//W3C//DTD SVG 1.1//EN" "http://www.w3.org/Graphics/SVG/1.1/DTD/svg11.dtd">
<svg version="1.1" id="twitter" xmlns="http://www.w3.org/2000/svg" xmlns:xlink="http://www.w3.org/1999/xlink" x="0px" y="0px"
	 width="560px" height="560px" viewBox="0 0 560 560" enable-background="new 0 0 560 560" xml:space="preserve">
<circle fill="#57102C" cx="280" cy="280" r="268.8"/>
<path fill="#F7F7F7" d="M417.203,194.398c-10.097,4.502-20.944,7.546-32.332,8.915c11.62-7.008,20.547-18.104,24.755-31.329
	c-10.878,6.49-22.924,11.2-35.75,13.742c-10.268-11.006-24.9-17.883-41.093-17.883c-31.092,0-56.3,25.351-56.3,56.625
	c0,4.438,0.496,8.758,1.456,12.905c-46.788-2.366-88.27-24.906-116.038-59.167c-4.844,8.366-7.622,18.094-7.622,28.47
	c0,19.648,9.94,36.982,25.046,47.135c-9.229-0.291-17.912-2.839-25.497-7.081c-0.005,0.238-0.005,0.476-0.005,0.714
	c0,27.438,19.407,50.321,45.161,55.526c-4.727,1.297-9.696,1.988-14.832,1.988c-3.629,0-7.154-0.355-10.593-1.016
	c7.166,22.494,27.956,38.869,52.59,39.325c-19.267,15.188-43.543,24.239-69.919,24.239c-4.544,0-9.024-0.268-13.429-0.789
	c24.915,16.066,54.508,25.443,86.296,25.443c103.55,0,160.177-86.287,160.177-161.12c0-2.456-0.056-4.895-0.165-7.328
	C400.108,215.726,409.654,205.75,417.203,194.398z"/>
</svg>
